<mxfile host="app.diagrams.net" agent="Mozilla/5.0 (Windows NT 10.0; Win64; x64) AppleWebKit/537.36 (KHTML, like Gecko) Chrome/130.0.0.0 Safari/537.36" version="24.8.3">
  <diagram name="Страница — 1" id="S_6LnQRem0umYePGNG85">
    <mxGraphModel grid="0" page="0" gridSize="10" guides="1" tooltips="1" connect="1" arrows="1" fold="1" pageScale="1" pageWidth="827" pageHeight="1169" math="0" shadow="0">
      <root>
        <mxCell id="0" />
        <mxCell id="1" parent="0" />
        <mxCell id="QmiCr7aBO75WWo9AxzDl-1" value="Система DigitalSolutions Manage" style="ellipse;whiteSpace=wrap;html=1;" vertex="1" parent="1">
          <mxGeometry x="630" y="210" width="120" height="80" as="geometry" />
        </mxCell>
        <mxCell id="QmiCr7aBO75WWo9AxzDl-2" value="" style="endArrow=none;html=1;rounded=0;entryX=0;entryY=0.5;entryDx=0;entryDy=0;" edge="1" parent="1" target="QmiCr7aBO75WWo9AxzDl-1">
          <mxGeometry width="50" height="50" relative="1" as="geometry">
            <mxPoint x="-290" y="250" as="sourcePoint" />
            <mxPoint x="210" y="220" as="targetPoint" />
          </mxGeometry>
        </mxCell>
        <mxCell id="QmiCr7aBO75WWo9AxzDl-3" value="Планирование и координация проектов" style="rounded=0;whiteSpace=wrap;html=1;" vertex="1" parent="1">
          <mxGeometry x="520" y="-20" width="120" height="60" as="geometry" />
        </mxCell>
        <mxCell id="QmiCr7aBO75WWo9AxzDl-4" value="Управление задачами" style="rounded=0;whiteSpace=wrap;html=1;" vertex="1" parent="1">
          <mxGeometry x="490" y="350" width="120" height="60" as="geometry" />
        </mxCell>
        <mxCell id="QmiCr7aBO75WWo9AxzDl-5" value="Управление ресурсами" style="rounded=0;whiteSpace=wrap;html=1;" vertex="1" parent="1">
          <mxGeometry x="180" y="-20" width="120" height="60" as="geometry" />
        </mxCell>
        <mxCell id="QmiCr7aBO75WWo9AxzDl-6" value="Интеграция с отделом разработки" style="rounded=0;whiteSpace=wrap;html=1;" vertex="1" parent="1">
          <mxGeometry x="120" y="370" width="120" height="60" as="geometry" />
        </mxCell>
        <mxCell id="QmiCr7aBO75WWo9AxzDl-7" value="Контроль и отчетность" style="rounded=0;whiteSpace=wrap;html=1;" vertex="1" parent="1">
          <mxGeometry x="-210" y="390" width="120" height="60" as="geometry" />
        </mxCell>
        <mxCell id="QmiCr7aBO75WWo9AxzDl-8" value="Доступ к системе" style="rounded=0;whiteSpace=wrap;html=1;" vertex="1" parent="1">
          <mxGeometry x="-220" y="30" width="120" height="60" as="geometry" />
        </mxCell>
        <mxCell id="QmiCr7aBO75WWo9AxzDl-9" value="" style="endArrow=none;html=1;rounded=0;entryX=0.5;entryY=1;entryDx=0;entryDy=0;" edge="1" parent="1" target="QmiCr7aBO75WWo9AxzDl-3">
          <mxGeometry width="50" height="50" relative="1" as="geometry">
            <mxPoint x="490" y="250" as="sourcePoint" />
            <mxPoint x="320" y="240" as="targetPoint" />
          </mxGeometry>
        </mxCell>
        <mxCell id="QmiCr7aBO75WWo9AxzDl-10" value="Создание проекта" style="rounded=0;whiteSpace=wrap;html=1;" vertex="1" parent="1">
          <mxGeometry x="460" y="70" width="70" height="30" as="geometry" />
        </mxCell>
        <mxCell id="QmiCr7aBO75WWo9AxzDl-11" value="Планирование задач и сроков" style="rounded=0;whiteSpace=wrap;html=1;" vertex="1" parent="1">
          <mxGeometry x="600" y="90" width="90" height="40" as="geometry" />
        </mxCell>
        <mxCell id="QmiCr7aBO75WWo9AxzDl-12" value="Координация между отделами" style="rounded=0;whiteSpace=wrap;html=1;" vertex="1" parent="1">
          <mxGeometry x="410" y="130" width="80" height="50" as="geometry" />
        </mxCell>
        <mxCell id="QmiCr7aBO75WWo9AxzDl-15" value="&amp;nbsp;Обновление статуса проекта" style="rounded=0;whiteSpace=wrap;html=1;" vertex="1" parent="1">
          <mxGeometry x="580" y="160" width="70" height="50" as="geometry" />
        </mxCell>
        <mxCell id="QmiCr7aBO75WWo9AxzDl-16" value="" style="endArrow=none;html=1;rounded=0;entryX=1;entryY=0.5;entryDx=0;entryDy=0;" edge="1" parent="1" target="QmiCr7aBO75WWo9AxzDl-10">
          <mxGeometry width="50" height="50" relative="1" as="geometry">
            <mxPoint x="540" y="130" as="sourcePoint" />
            <mxPoint x="540" y="450" as="targetPoint" />
          </mxGeometry>
        </mxCell>
        <mxCell id="QmiCr7aBO75WWo9AxzDl-17" value="" style="endArrow=none;html=1;rounded=0;entryX=0;entryY=0.5;entryDx=0;entryDy=0;" edge="1" parent="1" target="QmiCr7aBO75WWo9AxzDl-11">
          <mxGeometry width="50" height="50" relative="1" as="geometry">
            <mxPoint x="540" y="130" as="sourcePoint" />
            <mxPoint x="780" y="90" as="targetPoint" />
          </mxGeometry>
        </mxCell>
        <mxCell id="QmiCr7aBO75WWo9AxzDl-18" value="" style="endArrow=none;html=1;rounded=0;entryX=1;entryY=0.5;entryDx=0;entryDy=0;" edge="1" parent="1" target="QmiCr7aBO75WWo9AxzDl-12">
          <mxGeometry width="50" height="50" relative="1" as="geometry">
            <mxPoint x="520" y="180" as="sourcePoint" />
            <mxPoint x="710" y="420" as="targetPoint" />
          </mxGeometry>
        </mxCell>
        <mxCell id="QmiCr7aBO75WWo9AxzDl-19" value="" style="endArrow=none;html=1;rounded=0;entryX=0;entryY=0.5;entryDx=0;entryDy=0;" edge="1" parent="1" target="QmiCr7aBO75WWo9AxzDl-15">
          <mxGeometry width="50" height="50" relative="1" as="geometry">
            <mxPoint x="520" y="180" as="sourcePoint" />
            <mxPoint x="600" y="440" as="targetPoint" />
          </mxGeometry>
        </mxCell>
        <mxCell id="QmiCr7aBO75WWo9AxzDl-20" value="" style="endArrow=none;html=1;rounded=0;exitX=0.5;exitY=0;exitDx=0;exitDy=0;" edge="1" parent="1" source="QmiCr7aBO75WWo9AxzDl-4">
          <mxGeometry width="50" height="50" relative="1" as="geometry">
            <mxPoint x="440" y="450" as="sourcePoint" />
            <mxPoint x="450" y="250" as="targetPoint" />
          </mxGeometry>
        </mxCell>
        <mxCell id="QmiCr7aBO75WWo9AxzDl-22" value="Создание задачи" style="rounded=0;whiteSpace=wrap;html=1;" vertex="1" parent="1">
          <mxGeometry x="379" y="300" width="70" height="40" as="geometry" />
        </mxCell>
        <mxCell id="QmiCr7aBO75WWo9AxzDl-23" value="Изменение и удаление задачи" style="rounded=0;whiteSpace=wrap;html=1;" vertex="1" parent="1">
          <mxGeometry x="550" y="280" width="80" height="50" as="geometry" />
        </mxCell>
        <mxCell id="QmiCr7aBO75WWo9AxzDl-24" value="" style="endArrow=none;html=1;rounded=0;" edge="1" parent="1">
          <mxGeometry width="50" height="50" relative="1" as="geometry">
            <mxPoint x="450" y="320" as="sourcePoint" />
            <mxPoint x="480" y="280" as="targetPoint" />
          </mxGeometry>
        </mxCell>
        <mxCell id="QmiCr7aBO75WWo9AxzDl-25" value="" style="endArrow=none;html=1;rounded=0;entryX=0;entryY=0.5;entryDx=0;entryDy=0;" edge="1" parent="1" target="QmiCr7aBO75WWo9AxzDl-23">
          <mxGeometry width="50" height="50" relative="1" as="geometry">
            <mxPoint x="510" y="310" as="sourcePoint" />
            <mxPoint x="390" y="490" as="targetPoint" />
          </mxGeometry>
        </mxCell>
        <mxCell id="QmiCr7aBO75WWo9AxzDl-26" value="" style="endArrow=none;html=1;rounded=0;entryX=0.5;entryY=1;entryDx=0;entryDy=0;" edge="1" parent="1" target="QmiCr7aBO75WWo9AxzDl-5">
          <mxGeometry width="50" height="50" relative="1" as="geometry">
            <mxPoint x="340" y="250" as="sourcePoint" />
            <mxPoint x="220" y="90" as="targetPoint" />
          </mxGeometry>
        </mxCell>
        <mxCell id="QmiCr7aBO75WWo9AxzDl-27" value="Просмотр списка ресурсов" style="rounded=0;whiteSpace=wrap;html=1;" vertex="1" parent="1">
          <mxGeometry x="330" y="100" width="60" height="45" as="geometry" />
        </mxCell>
        <mxCell id="QmiCr7aBO75WWo9AxzDl-28" value="&amp;nbsp;Управление доступностью ресурсов" style="rounded=0;whiteSpace=wrap;html=1;" vertex="1" parent="1">
          <mxGeometry x="150" y="95" width="90" height="50" as="geometry" />
        </mxCell>
        <mxCell id="QmiCr7aBO75WWo9AxzDl-29" value="" style="endArrow=none;html=1;rounded=0;entryX=0.5;entryY=1;entryDx=0;entryDy=0;" edge="1" parent="1" target="QmiCr7aBO75WWo9AxzDl-27">
          <mxGeometry width="50" height="50" relative="1" as="geometry">
            <mxPoint x="310" y="190" as="sourcePoint" />
            <mxPoint x="270" y="170" as="targetPoint" />
          </mxGeometry>
        </mxCell>
        <mxCell id="QmiCr7aBO75WWo9AxzDl-30" value="" style="endArrow=none;html=1;rounded=0;exitX=1;exitY=0.5;exitDx=0;exitDy=0;" edge="1" parent="1" source="QmiCr7aBO75WWo9AxzDl-28">
          <mxGeometry width="50" height="50" relative="1" as="geometry">
            <mxPoint x="140" y="210" as="sourcePoint" />
            <mxPoint x="280" y="130" as="targetPoint" />
          </mxGeometry>
        </mxCell>
        <mxCell id="QmiCr7aBO75WWo9AxzDl-31" value="" style="endArrow=none;html=1;rounded=0;exitX=0.5;exitY=0;exitDx=0;exitDy=0;" edge="1" parent="1" source="QmiCr7aBO75WWo9AxzDl-6">
          <mxGeometry width="50" height="50" relative="1" as="geometry">
            <mxPoint x="60" y="370" as="sourcePoint" />
            <mxPoint x="260" y="250" as="targetPoint" />
          </mxGeometry>
        </mxCell>
        <mxCell id="QmiCr7aBO75WWo9AxzDl-32" value="" style="endArrow=none;html=1;rounded=0;exitX=1;exitY=0.5;exitDx=0;exitDy=0;" edge="1" parent="1" source="QmiCr7aBO75WWo9AxzDl-33">
          <mxGeometry width="50" height="50" relative="1" as="geometry">
            <mxPoint x="50" y="350" as="sourcePoint" />
            <mxPoint x="220" y="310" as="targetPoint" />
          </mxGeometry>
        </mxCell>
        <mxCell id="QmiCr7aBO75WWo9AxzDl-33" value="Синхронизация задач с отделом разработки" style="rounded=0;whiteSpace=wrap;html=1;" vertex="1" parent="1">
          <mxGeometry x="50" y="290" width="100" height="50" as="geometry" />
        </mxCell>
        <mxCell id="QmiCr7aBO75WWo9AxzDl-35" value="" style="endArrow=none;html=1;rounded=0;exitX=0.5;exitY=0;exitDx=0;exitDy=0;" edge="1" parent="1" source="QmiCr7aBO75WWo9AxzDl-7">
          <mxGeometry width="50" height="50" relative="1" as="geometry">
            <mxPoint x="-150" y="390" as="sourcePoint" />
            <mxPoint x="-20" y="250" as="targetPoint" />
          </mxGeometry>
        </mxCell>
        <mxCell id="QmiCr7aBO75WWo9AxzDl-36" value="Создание отчетов по проектам" style="rounded=0;whiteSpace=wrap;html=1;" vertex="1" parent="1">
          <mxGeometry x="-240" y="290" width="70" height="50" as="geometry" />
        </mxCell>
        <mxCell id="QmiCr7aBO75WWo9AxzDl-37" value="Контроль выполнения задач и соблюдения сроков" style="rounded=0;whiteSpace=wrap;html=1;" vertex="1" parent="1">
          <mxGeometry x="-50" y="310" width="80" height="80" as="geometry" />
        </mxCell>
        <mxCell id="QmiCr7aBO75WWo9AxzDl-38" value="" style="endArrow=none;html=1;rounded=0;exitX=1;exitY=0.5;exitDx=0;exitDy=0;" edge="1" parent="1" source="QmiCr7aBO75WWo9AxzDl-36">
          <mxGeometry width="50" height="50" relative="1" as="geometry">
            <mxPoint x="-210" y="280" as="sourcePoint" />
            <mxPoint x="-60" y="290" as="targetPoint" />
          </mxGeometry>
        </mxCell>
        <mxCell id="QmiCr7aBO75WWo9AxzDl-39" value="" style="endArrow=none;html=1;rounded=0;exitX=0.5;exitY=0;exitDx=0;exitDy=0;" edge="1" parent="1" source="QmiCr7aBO75WWo9AxzDl-37">
          <mxGeometry width="50" height="50" relative="1" as="geometry">
            <mxPoint x="-280" y="250" as="sourcePoint" />
            <mxPoint x="-40" y="270" as="targetPoint" />
          </mxGeometry>
        </mxCell>
        <mxCell id="QmiCr7aBO75WWo9AxzDl-40" value="" style="endArrow=none;html=1;rounded=0;entryX=0.5;entryY=1;entryDx=0;entryDy=0;" edge="1" parent="1" target="QmiCr7aBO75WWo9AxzDl-8">
          <mxGeometry width="50" height="50" relative="1" as="geometry">
            <mxPoint x="-130" y="250" as="sourcePoint" />
            <mxPoint x="-220" y="140" as="targetPoint" />
          </mxGeometry>
        </mxCell>
        <mxCell id="QmiCr7aBO75WWo9AxzDl-41" value="Интернет" style="rounded=0;whiteSpace=wrap;html=1;" vertex="1" parent="1">
          <mxGeometry x="-250" y="125" width="60" height="20" as="geometry" />
        </mxCell>
        <mxCell id="QmiCr7aBO75WWo9AxzDl-42" value="Интрасеть" style="rounded=0;whiteSpace=wrap;html=1;" vertex="1" parent="1">
          <mxGeometry x="-255" y="180" width="70" height="20" as="geometry" />
        </mxCell>
        <mxCell id="QmiCr7aBO75WWo9AxzDl-43" value="" style="endArrow=none;html=1;rounded=0;exitX=1;exitY=0.5;exitDx=0;exitDy=0;" edge="1" parent="1" source="QmiCr7aBO75WWo9AxzDl-41">
          <mxGeometry width="50" height="50" relative="1" as="geometry">
            <mxPoint x="-190" y="140" as="sourcePoint" />
            <mxPoint x="-150" y="140" as="targetPoint" />
          </mxGeometry>
        </mxCell>
        <mxCell id="QmiCr7aBO75WWo9AxzDl-44" value="" style="endArrow=none;html=1;rounded=0;entryX=1;entryY=0.5;entryDx=0;entryDy=0;" edge="1" parent="1" target="QmiCr7aBO75WWo9AxzDl-42">
          <mxGeometry width="50" height="50" relative="1" as="geometry">
            <mxPoint x="-140" y="200" as="sourcePoint" />
            <mxPoint x="-50" y="140" as="targetPoint" />
          </mxGeometry>
        </mxCell>
        <mxCell id="QmiCr7aBO75WWo9AxzDl-45" value="" style="endArrow=none;html=1;rounded=0;" edge="1" parent="1">
          <mxGeometry width="50" height="50" relative="1" as="geometry">
            <mxPoint x="-140" y="180" as="sourcePoint" />
            <mxPoint x="-20" y="140" as="targetPoint" />
          </mxGeometry>
        </mxCell>
        <mxCell id="QmiCr7aBO75WWo9AxzDl-46" value="" style="endArrow=none;html=1;rounded=0;entryX=0.5;entryY=1;entryDx=0;entryDy=0;" edge="1" parent="1" target="QmiCr7aBO75WWo9AxzDl-47">
          <mxGeometry width="50" height="50" relative="1" as="geometry">
            <mxPoint x="-80" y="160" as="sourcePoint" />
            <mxPoint x="-80" y="120" as="targetPoint" />
          </mxGeometry>
        </mxCell>
        <mxCell id="QmiCr7aBO75WWo9AxzDl-47" value="Смартфон" style="rounded=0;whiteSpace=wrap;html=1;" vertex="1" parent="1">
          <mxGeometry x="-110" y="112.5" width="60" height="15" as="geometry" />
        </mxCell>
        <mxCell id="QmiCr7aBO75WWo9AxzDl-48" value="Планшет" style="rounded=0;whiteSpace=wrap;html=1;" vertex="1" parent="1">
          <mxGeometry x="-80" y="180" width="60" height="20" as="geometry" />
        </mxCell>
        <mxCell id="QmiCr7aBO75WWo9AxzDl-49" value="" style="endArrow=none;html=1;rounded=0;exitX=0.5;exitY=0;exitDx=0;exitDy=0;" edge="1" parent="1" source="QmiCr7aBO75WWo9AxzDl-48">
          <mxGeometry width="50" height="50" relative="1" as="geometry">
            <mxPoint y="170" as="sourcePoint" />
            <mxPoint x="-80" y="160" as="targetPoint" />
          </mxGeometry>
        </mxCell>
        <mxCell id="QmiCr7aBO75WWo9AxzDl-50" value="Мобильные устройства" style="text;html=1;align=center;verticalAlign=middle;whiteSpace=wrap;rounded=0;" vertex="1" parent="1">
          <mxGeometry y="113" width="60" height="30" as="geometry" />
        </mxCell>
      </root>
    </mxGraphModel>
  </diagram>
</mxfile>
